<?xml version="1.0" encoding="UTF-8" standalone="no"?>
<svg
   xmlns:dc="http://purl.org/dc/elements/1.1/"
   xmlns:cc="http://creativecommons.org/ns#"
   xmlns:rdf="http://www.w3.org/1999/02/22-rdf-syntax-ns#"
   xmlns:svg="http://www.w3.org/2000/svg"
   xmlns="http://www.w3.org/2000/svg"
   id="svg2456"
   version="1.1"
   viewBox="0 0 210 297"
   height="297mm"
   width="210mm">
  <defs
     id="defs2450" />
  <metadata
     id="metadata2453">
    <rdf:RDF>
      <cc:Work
         rdf:about="">
        <dc:format>image/svg+xml</dc:format>
        <dc:type
           rdf:resource="http://purl.org/dc/dcmitype/StillImage" />
        <dc:title></dc:title>
      </cc:Work>
    </rdf:RDF>
  </metadata>
  <g
     id="layer1">
    <polygon
       style="fill:none;stroke:#aaa7a7;stroke-width:0.67000002px;stroke-miterlimit:10"
       id="polygon1116-2"
       points="248.59,373.13 243.66,354.69 253.51,351.15 258.44,369.6 "
       class="cls-22"
       transform="matrix(3.1561702,0,0,3.1561702,-621.20843,-1078.5052)" />
    <polyline
       style="fill:none;stroke:#aaa7a7;stroke-width:0.67000002px;stroke-miterlimit:10"
       id="polyline1118-0"
       points="249.71 368.16 251.05 362.14 246.93 357.98"
       class="cls-22"
       transform="matrix(3.1561702,0,0,3.1561702,-621.20843,-1078.5052)" />
    <polyline
       style="fill:none;stroke:#824c44;stroke-width:1.75px;stroke-miterlimit:10"
       id="polyline1120-2"
       points="242.01 410.49 237.94 417.47 246.58 425.03"
       class="cls-23"
       transform="matrix(3.1561702,0,0,3.1561702,-621.20843,-1078.5052)" />
    <polygon
       style="fill:#d84a37"
       id="polygon1122-8"
       points="247.69,361.61 242.31,371.87 236.94,366.64 "
       class="cls-24"
       transform="matrix(3.1561702,0,0,3.1561702,-621.20843,-1078.5052)" />
    <path
       style="fill:#d84a37;stroke-width:3.15617013"
       id="path1124-4"
       d="m 148.89704,101.36584 c 0,0 43.46056,34.87573 28.75278,79.56711 -14.70777,44.69137 -37.33748,47.75278 -56.81106,50.81432 -19.47358,3.06153 -43.460436,-12.2459 -50.814316,-18.93703 -7.35389,-6.69112 -16.53837,-23.86064 -16.53837,-23.86064 l 48.289456,-65.01715 z"
       class="cls-24" />
    <polygon
       style="fill:#d84a37"
       id="polygon1126-6"
       points="215.5,371.87 220.54,393.03 213.75,397.68 204.06,374.6 "
       class="cls-24"
       transform="matrix(3.1561702,0,0,3.1561702,-621.20843,-1078.5052)" />
    <path
       style="fill:#ad291c;stroke-width:3.15617013"
       id="path1128-5"
       d="m 106.66754,78.988668 c -11.614736,7.35388 -11.015076,37.053452 -28.152996,60.914102 -17.13803,23.86065 -61.8294,54.4754 -61.8294,54.4754 a 123.62719,123.62719 0 0 0 77.7365,0 c 41.629836,-14.0765 41.030176,-42.2295 40.398896,-59.96719 -0.63103,-17.7377 14.0765,-33.04514 14.0765,-33.04514 0,0 -3.15613,-17.453552 -18.11632,-24.649622 -14.9603,-7.19606 -24.11318,2.27245 -24.11318,2.27245 z"
       class="cls-2" />
    <circle
       style="fill:#1d1d1b;stroke-width:3.15617013"
       id="circle1130-1"
       r="6.1229701"
       cy="91.581802"
       cx="123.20579"
       class="cls-5" />
    <polyline
       style="fill:none;stroke:#824c44;stroke-width:1.75px;stroke-miterlimit:10"
       id="polyline1132-5"
       points="233.37 411.58 229.3 418.56 237.94 426.13"
       class="cls-23"
       transform="matrix(3.1561702,0,0,3.1561702,-621.20843,-1078.5052)" />
  </g>
</svg>
