<?xml version="1.0" encoding="UTF-8" standalone="no"?>
<!-- Created with Inkscape (http://www.inkscape.org/) -->

<svg
   xmlns:dc="http://purl.org/dc/elements/1.1/"
   xmlns:cc="http://creativecommons.org/ns#"
   xmlns:rdf="http://www.w3.org/1999/02/22-rdf-syntax-ns#"
   xmlns:svg="http://www.w3.org/2000/svg"
   xmlns="http://www.w3.org/2000/svg"
   xmlns:sodipodi="http://sodipodi.sourceforge.net/DTD/sodipodi-0.dtd"
   xmlns:inkscape="http://www.inkscape.org/namespaces/inkscape"
   width="21.235001mm"
   height="21.235001mm"
   viewBox="0 0 21.235001 21.235001"
   version="1.1"
   id="svg1685"
   sodipodi:docname="logo.svg"
   inkscape:export-filename="C:\Users\Thom Shannon\Documents\pillarbox_icon.png"
   inkscape:export-xdpi="612.41998"
   inkscape:export-ydpi="612.41998"
   inkscape:version="0.92.2 (5c3e80d, 2017-08-06)">
  <defs
     id="defs1679" />
  <sodipodi:namedview
     id="base"
     pagecolor="#ffffff"
     bordercolor="#666666"
     borderopacity="1.0"
     inkscape:pageopacity="0.0"
     inkscape:pageshadow="2"
     inkscape:zoom="3.1808859"
     inkscape:cx="223.66652"
     inkscape:cy="-36.835561"
     inkscape:document-units="mm"
     inkscape:current-layer="layer1"
     showgrid="false"
     inkscape:window-width="2880"
     inkscape:window-height="1706"
     inkscape:window-x="-11"
     inkscape:window-y="-11"
     inkscape:window-maximized="1"
     inkscape:measure-start="0,0"
     inkscape:measure-end="0,0" />
  <metadata
     id="metadata1682">
    <rdf:RDF>
      <cc:Work
         rdf:about="">
        <dc:format>image/svg+xml</dc:format>
        <dc:type
           rdf:resource="http://purl.org/dc/dcmitype/StillImage" />
        <dc:title></dc:title>
      </cc:Work>
    </rdf:RDF>
  </metadata>
  <g
     inkscape:label="Layer 1"
     inkscape:groupmode="layer"
     id="layer1"
     transform="translate(0,-275.765)">
    <path
       style="fill:#ad291c;stroke-width:0.07549284"
       d="M 1.7444598,282.79369 H 19.823445 l -0.132296,0.37306 H 1.8767531 Z"
       id="rect1354-9"
       inkscape:connector-curvature="0"
       sodipodi:nodetypes="ccccc" />
    <rect
       class="cls-4"
       x="3.8187966"
       y="285.39981"
       width="13.930313"
       height="11.599334"
       id="rect1382-9"
       style="fill:#e1351d;stroke-width:0.26458332" />
    <path
       style="fill:#ad291c;fill-opacity:1;stroke-width:0.25871938"
       d="m 10.756928,276.48453 c -0.192322,-0.002 -0.359812,0.12911 -0.485449,0.24863 -0.718826,-0.21375 -1.6062634,0.14431 -1.9011911,0.84875 -0.2512613,0.73275 0.1004688,1.49855 0.4313324,2.145 0.1143918,0.21023 0.2419131,0.41308 0.3779382,0.60993 1.1039825,0 2.2079645,0 3.3119465,0 0.468977,-0.79871 0.945413,-1.72226 0.756681,-2.67676 -0.221265,-0.78738 -1.198374,-1.19207 -1.938905,-0.90392 -0.120091,-0.1792 -0.338811,-0.27989 -0.552353,-0.27163 z m -1.0065224,1.0477 c 0.176754,0.0177 0.3709134,-0.0177 0.5319284,0.074 -0.0026,0.63917 0.008,1.29194 -0.0028,1.92266 -0.219797,-0.0137 -0.5500034,0.12463 -0.6361429,-0.16879 -0.2735795,-0.49118 -0.5209151,-1.1575 -0.2005485,-1.6877 0.075606,-0.088 0.1902673,-0.14564 0.307577,-0.14014 z m 2.1104234,0.0123 c 0.378536,0.0383 0.445165,0.51855 0.412195,0.82753 -0.04012,0.42233 -0.212671,0.82818 -0.458833,1.16952 -0.163454,0.0193 -0.326255,-0.0224 -0.489953,-0.0141 0.03923,-0.63761 -0.02851,-1.30156 0.02042,-1.9204 0.165582,-0.0559 0.343373,-0.057 0.516168,-0.0625 z m 0.546323,1.27631 c -0.0091,0.0233 -0.01163,-0.0164 0,0 z"
       id="path1394-2-6"
       inkscape:connector-curvature="0" />
    <path
       inkscape:connector-curvature="0"
       class="cls-4"
       d="M 1.7444598,282.79369 H 19.823445 v -0.63764 c 0,0 -3.45546,-1.75419 -9.040817,-1.75419 -5.5853547,0 -9.0408132,1.75419 -9.0408132,1.75419 z"
       id="path1386-3"
       style="fill:#e1351d;stroke-width:0.26458332" />
    <rect
       class="cls-5"
       x="6.5307717"
       y="289.44794"
       width="8.5089998"
       height="2.12725"
       id="rect1388-2"
       style="fill:#1d1d1b;stroke-width:0.26458332" />
    <rect
       class="cls-6"
       x="213.16963"
       y="197.13107"
       width="6.4426041"
       height="4.8180623"
       transform="rotate(45)"
       id="rect1390-1"
       style="fill:#ffffff;stroke-width:0.26458332" />
    <rect
       class="cls-6"
       x="9.9994612"
       y="286.65393"
       width="1.5689791"
       height="1.5689791"
       id="rect1392-6"
       style="fill:#ffffff;stroke-width:0.26458332" />
    <path
       inkscape:connector-curvature="0"
       class="cls-7"
       d="m 12.716732,277.18452 a 1.3229167,1.3229167 0 0 0 -1.531937,-0.13493 c 0,0 0,-0.0132 0,-0.0212 a 0.40216667,0.40216667 0 0 0 -0.79375,-0.0159 c -0.322792,-0.17463 -0.8281466,-0.26459 -1.4869597,0.17197 -1.143,0.76994 0.3704171,2.93159 0.3704171,2.93159 h 3.1088546 c 0,0 1.359958,-2.14842 0.333375,-2.93159 z m -2.193396,2.61938 H 9.5734814 a 6.7918542,6.7918542 0 0 1 -0.351896,-0.66146 c -0.2883951,-0.57679 -0.2883951,-1.28058 0,-1.67217 0.288396,-0.39158 1.1350636,-0.14552 1.1350636,-0.14552 l 0.164042,0.082 z m 1.828271,-0.66146 a 6.8527083,6.8527083 0 0 1 -0.341312,0.66146 h -0.923396 v -2.38125 l 0.161396,-0.082 c 0,0 0.822854,-0.24871 1.103312,0.14552 0.280459,0.39423 0.280459,1.08215 0,1.65894 z"
       id="path1394-2"
       style="fill:#f9e9aa;stroke-width:0.26458332" />
    <polygon
       transform="matrix(0.26458333,0,0,0.26458333,-70.290996,253.08627)"
       class="cls-12"
       points="305.71,142.82 311.36,142.82 308.54,139.99 "
       id="polygon1406-1"
       style="fill:#aaa7a7" />
    <rect
       class="cls-13"
       x="1.7444559"
       y="282.15601"
       width="18.078979"
       height="0.63764584"
       id="rect1408-5"
       style="fill:#e25b54;stroke-width:0.26458332" />
    <rect
       class="cls-13"
       x="16.958017"
       y="285.39981"
       width="0.7911042"
       height="11.599334"
       id="rect1410-1"
       style="fill:#e25b54;stroke-width:0.26458332" />
    <polyline
       transform="matrix(0.26458333,0,0,0.26458333,-70.290996,253.08627)"
       class="cls-21"
       points="309.52 146.8 310.71 155.04 319.1 156.25"
       id="polyline1474-2"
       style="fill:none;stroke:#aaa7a7;stroke-miterlimit:10" />
    <path
       style="fill:#ad291c;stroke-width:0.06702981"
       d="m 3.5252923,284.65504 14.4243027,0.0182 -0.200474,0.72657 H 3.8187966 Z"
       id="rect1354-9-2"
       inkscape:connector-curvature="0"
       sodipodi:nodetypes="ccccc" />
    <polygon
       transform="matrix(0.26458333,0,0,0.26458333,-70.290996,253.08627)"
       class="cls-4"
       points="333.15,120.62 306.52,120.32 279.39,120.32 272.76,113.69 340.09,113.69 "
       id="polygon1384-2"
       style="fill:#e1351d" />
  </g>
</svg>
